<?xml version="1.0" standalone="no"?><!DOCTYPE svg PUBLIC "-//W3C//DTD SVG 1.1//EN" "http://www.w3.org/Graphics/SVG/1.1/DTD/svg11.dtd"><svg t="1619489297474" class="icon" viewBox="0 0 1024 1024" version="1.1" xmlns="http://www.w3.org/2000/svg" p-id="1135" xmlns:xlink="http://www.w3.org/1999/xlink" width="200" height="200"><defs><style type="text/css"></style></defs><path d="M387.029333 210.304a42.666667 42.666667 0 0 1 0 60.330667L145.706667 512l241.322666 241.365333a42.666667 42.666667 0 0 1-60.330666 60.330667l-271.530667-271.530667a42.666667 42.666667 0 0 1 0-60.330666l271.530667-271.530667a42.666667 42.666667 0 0 1 60.330666 0z m310.272 0l271.530667 271.530667a42.666667 42.666667 0 0 1 0 60.330666l-271.530667 271.530667a42.666667 42.666667 0 0 1-60.330666-60.330667L878.293333 512l-241.322666-241.365333a42.666667 42.666667 0 1 1 60.330666-60.330667z" p-id="1136"></path></svg>