<?xml version="1.0" standalone="no"?><!DOCTYPE svg PUBLIC "-//W3C//DTD SVG 1.1//EN" "http://www.w3.org/Graphics/SVG/1.1/DTD/svg11.dtd"><svg t="1619489301168" class="icon" viewBox="0 0 1024 1024" version="1.1" xmlns="http://www.w3.org/2000/svg" p-id="1263" xmlns:xlink="http://www.w3.org/1999/xlink" width="200" height="200"><defs><style type="text/css"></style></defs><path d="M345.002667 794.026667l255.829333-597.504a42.666667 42.666667 0 0 1 80.128 28.928l-1.706667 4.693333-255.829333 597.504a42.666667 42.666667 0 0 1-80.128-28.885333l1.706667-4.693334 255.829333-597.546666-255.829333 597.546666z m-247.168-312.192l170.666666-170.666667a42.666667 42.666667 0 0 1 63.872 56.32l-3.541333 4.010667L188.330667 512l140.501333 140.501333a42.666667 42.666667 0 0 1-56.32 63.872l-4.010667-3.541333-170.666666-170.666667a42.666667 42.666667 0 0 1-3.541334-56.32l3.541334-4.010666 170.666666-170.666667-170.666666 170.666667z m597.333333-170.709334a42.666667 42.666667 0 0 1 56.32-3.541333l3.968 3.541333 170.709333 170.666667a42.666667 42.666667 0 0 1 3.541334 56.362667l-3.541334 4.053333-170.709333 170.453333a42.666667 42.666667 0 0 1-63.872-56.32l3.584-4.053333 140.458667-140.330667-140.501334-140.501333a42.666667 42.666667 0 0 1 0-60.330667z" p-id="1264"></path></svg>