<?xml version="1.0" standalone="no"?><!DOCTYPE svg PUBLIC "-//W3C//DTD SVG 1.1//EN" "http://www.w3.org/Graphics/SVG/1.1/DTD/svg11.dtd"><svg t="1619170822996" class="icon" viewBox="0 0 1204 1024" version="1.1" xmlns="http://www.w3.org/2000/svg" p-id="752" xmlns:xlink="http://www.w3.org/1999/xlink" width="235.15625" height="200"><defs><style type="text/css"></style></defs><path d="M82.823529 90.352941h1054.117647a45.176471 45.176471 0 1 0 0-90.352941h-1054.117647a45.176471 45.176471 0 1 0 0 90.352941z m0 888.470588h1054.117647a45.176471 45.176471 0 1 0 0-90.352941h-1054.117647a45.176471 45.176471 0 1 0 0 90.352941z m652.589177-592.293647h401.588706a45.176471 45.176471 0 0 0 0-90.352941h-401.588706a45.176471 45.176471 0 1 0 0 90.352941z m0 296.116706h401.588706a45.176471 45.176471 0 1 0 0-90.352941h-401.588706a45.176471 45.176471 0 0 0 0 90.352941zM379.060706 266.842353L64.271059 472.064a26.383059 26.383059 0 0 0 0.12047 44.212706l304.609883 195.824941a26.383059 26.383059 0 0 0 40.598588-21.504l10.24-401.046588a26.322824 26.322824 0 0 0-40.779294-22.768941z" p-id="753"></path></svg>