<?xml version="1.0" standalone="no"?><!DOCTYPE svg PUBLIC "-//W3C//DTD SVG 1.1//EN" "http://www.w3.org/Graphics/SVG/1.1/DTD/svg11.dtd"><svg t="1619170831074" class="icon" viewBox="0 0 1204 1024" version="1.1" xmlns="http://www.w3.org/2000/svg" p-id="884" xmlns:xlink="http://www.w3.org/1999/xlink" width="235.15625" height="200"><defs><style type="text/css"></style></defs><path d="M1137.001412 111.073882H82.823529a45.176471 45.176471 0 1 1 0-90.352941h1054.117647a45.176471 45.176471 0 1 1 0 90.352941z m0 888.470589H82.823529a45.176471 45.176471 0 1 1 0-90.352942h1054.117647a45.176471 45.176471 0 1 1 0 90.352942zM484.412235 407.190588H82.823529a45.176471 45.176471 0 0 1 0-90.352941h401.588706a45.176471 45.176471 0 1 1 0 90.352941z m0 296.176941H82.823529a45.176471 45.176471 0 1 1 0-90.352941h401.588706a45.176471 45.176471 0 0 1 0 90.352941z m356.291765-415.86447l314.849882 205.281882a26.383059 26.383059 0 0 1-0.12047 44.212706l-304.609883 195.824941a26.383059 26.383059 0 0 1-40.598588-21.504l-10.24-401.046588a26.322824 26.322824 0 0 1 40.719059-22.768941z" p-id="885"></path></svg>